<mxfile host="app.diagrams.net" agent="Mozilla/5.0 (Windows NT 10.0; Win64; x64) AppleWebKit/537.36 (KHTML, like Gecko) Chrome/134.0.0.0 Safari/537.36" version="26.1.0">
  <diagram name="Página-1" id="1hL9Om-VZf7akXX2MLqt">
    <mxGraphModel dx="1114" dy="566" grid="1" gridSize="10" guides="1" tooltips="1" connect="1" arrows="1" fold="1" page="1" pageScale="1" pageWidth="827" pageHeight="1169" math="0" shadow="0">
      <root>
        <mxCell id="0" />
        <mxCell id="1" parent="0" />
        <mxCell id="wYLhbUGFcpA3OBlEljk2-1" value="Administrador" style="shape=umlActor;verticalLabelPosition=bottom;verticalAlign=top;html=1;outlineConnect=0;" vertex="1" parent="1">
          <mxGeometry x="140" y="360" width="30" height="60" as="geometry" />
        </mxCell>
        <mxCell id="wYLhbUGFcpA3OBlEljk2-2" value="Atleta" style="shape=umlActor;verticalLabelPosition=bottom;verticalAlign=top;html=1;outlineConnect=0;" vertex="1" parent="1">
          <mxGeometry x="140" y="545" width="30" height="60" as="geometry" />
        </mxCell>
        <mxCell id="wYLhbUGFcpA3OBlEljk2-4" value="Cadastrar Competição" style="ellipse;whiteSpace=wrap;html=1;" vertex="1" parent="1">
          <mxGeometry x="290" y="220" width="120" height="70" as="geometry" />
        </mxCell>
        <mxCell id="wYLhbUGFcpA3OBlEljk2-5" value="Alocar Local" style="ellipse;whiteSpace=wrap;html=1;" vertex="1" parent="1">
          <mxGeometry x="450" y="300" width="120" height="70" as="geometry" />
        </mxCell>
        <mxCell id="wYLhbUGFcpA3OBlEljk2-6" value="Registrar Resultados" style="ellipse;whiteSpace=wrap;html=1;" vertex="1" parent="1">
          <mxGeometry x="290" y="380" width="120" height="70" as="geometry" />
        </mxCell>
        <mxCell id="wYLhbUGFcpA3OBlEljk2-7" value="&lt;span&gt;&lt;/span&gt;&lt;span&gt;&lt;/span&gt;&lt;span style=&quot;white-space-collapse: preserve;&quot;&gt;Gerar Relatorio de Medalhas&lt;/span&gt;" style="ellipse;whiteSpace=wrap;html=1;" vertex="1" parent="1">
          <mxGeometry x="440" y="460" width="120" height="70" as="geometry" />
        </mxCell>
        <mxCell id="wYLhbUGFcpA3OBlEljk2-8" value="&lt;span&gt;&lt;/span&gt;&lt;span&gt;&lt;/span&gt;&lt;span&gt;&lt;/span&gt;&lt;span style=&quot;white-space-collapse: preserve;&quot;&gt;Inscrever na Competição&lt;/span&gt;" style="ellipse;whiteSpace=wrap;html=1;" vertex="1" parent="1">
          <mxGeometry x="290" y="540" width="120" height="70" as="geometry" />
        </mxCell>
        <mxCell id="wYLhbUGFcpA3OBlEljk2-11" value="" style="endArrow=none;html=1;rounded=0;entryX=0;entryY=0.5;entryDx=0;entryDy=0;" edge="1" parent="1" target="wYLhbUGFcpA3OBlEljk2-4">
          <mxGeometry width="50" height="50" relative="1" as="geometry">
            <mxPoint x="180" y="370" as="sourcePoint" />
            <mxPoint x="250" y="330" as="targetPoint" />
          </mxGeometry>
        </mxCell>
        <mxCell id="wYLhbUGFcpA3OBlEljk2-13" value="" style="endArrow=none;html=1;rounded=0;entryX=0.025;entryY=0.414;entryDx=0;entryDy=0;entryPerimeter=0;" edge="1" parent="1" target="wYLhbUGFcpA3OBlEljk2-6">
          <mxGeometry width="50" height="50" relative="1" as="geometry">
            <mxPoint x="200" y="410" as="sourcePoint" />
            <mxPoint x="320" y="295" as="targetPoint" />
          </mxGeometry>
        </mxCell>
        <mxCell id="wYLhbUGFcpA3OBlEljk2-14" value="" style="endArrow=none;html=1;rounded=0;entryX=0;entryY=0.5;entryDx=0;entryDy=0;" edge="1" parent="1" target="wYLhbUGFcpA3OBlEljk2-7">
          <mxGeometry width="50" height="50" relative="1" as="geometry">
            <mxPoint x="200" y="430" as="sourcePoint" />
            <mxPoint x="330" y="305" as="targetPoint" />
          </mxGeometry>
        </mxCell>
        <mxCell id="wYLhbUGFcpA3OBlEljk2-15" value="" style="endArrow=none;html=1;rounded=0;entryX=0;entryY=0.5;entryDx=0;entryDy=0;" edge="1" parent="1" target="wYLhbUGFcpA3OBlEljk2-8">
          <mxGeometry width="50" height="50" relative="1" as="geometry">
            <mxPoint x="190" y="575" as="sourcePoint" />
            <mxPoint x="310" y="545" as="targetPoint" />
          </mxGeometry>
        </mxCell>
        <mxCell id="wYLhbUGFcpA3OBlEljk2-18" value="" style="endArrow=none;html=1;rounded=0;" edge="1" parent="1">
          <mxGeometry width="50" height="50" relative="1" as="geometry">
            <mxPoint x="600" y="630" as="sourcePoint" />
            <mxPoint x="600" y="200" as="targetPoint" />
          </mxGeometry>
        </mxCell>
        <mxCell id="wYLhbUGFcpA3OBlEljk2-19" value="" style="endArrow=none;html=1;rounded=0;" edge="1" parent="1">
          <mxGeometry width="50" height="50" relative="1" as="geometry">
            <mxPoint x="250" y="630" as="sourcePoint" />
            <mxPoint x="250" y="200" as="targetPoint" />
          </mxGeometry>
        </mxCell>
        <mxCell id="wYLhbUGFcpA3OBlEljk2-20" value="" style="endArrow=none;html=1;rounded=0;" edge="1" parent="1">
          <mxGeometry width="50" height="50" relative="1" as="geometry">
            <mxPoint x="250" y="200" as="sourcePoint" />
            <mxPoint x="600" y="200" as="targetPoint" />
          </mxGeometry>
        </mxCell>
        <mxCell id="wYLhbUGFcpA3OBlEljk2-21" value="" style="endArrow=none;html=1;rounded=0;" edge="1" parent="1">
          <mxGeometry width="50" height="50" relative="1" as="geometry">
            <mxPoint x="250" y="630" as="sourcePoint" />
            <mxPoint x="600" y="630" as="targetPoint" />
          </mxGeometry>
        </mxCell>
        <mxCell id="wYLhbUGFcpA3OBlEljk2-27" value="include" style="endArrow=open;endSize=12;dashed=1;html=1;rounded=0;entryX=1;entryY=1;entryDx=0;entryDy=0;" edge="1" parent="1" source="wYLhbUGFcpA3OBlEljk2-5" target="wYLhbUGFcpA3OBlEljk2-4">
          <mxGeometry width="160" relative="1" as="geometry">
            <mxPoint x="430" y="320" as="sourcePoint" />
            <mxPoint x="590" y="320" as="targetPoint" />
          </mxGeometry>
        </mxCell>
        <mxCell id="wYLhbUGFcpA3OBlEljk2-28" value="" style="endArrow=none;html=1;rounded=0;entryX=0;entryY=0.5;entryDx=0;entryDy=0;" edge="1" parent="1" target="wYLhbUGFcpA3OBlEljk2-5">
          <mxGeometry width="50" height="50" relative="1" as="geometry">
            <mxPoint x="200" y="380" as="sourcePoint" />
            <mxPoint x="430" y="330" as="targetPoint" />
          </mxGeometry>
        </mxCell>
        <mxCell id="wYLhbUGFcpA3OBlEljk2-29" value="include" style="endArrow=open;endSize=12;dashed=1;html=1;rounded=0;entryX=1.008;entryY=0.6;entryDx=0;entryDy=0;entryPerimeter=0;" edge="1" parent="1" source="wYLhbUGFcpA3OBlEljk2-7" target="wYLhbUGFcpA3OBlEljk2-6">
          <mxGeometry width="160" relative="1" as="geometry">
            <mxPoint x="461" y="315" as="sourcePoint" />
            <mxPoint x="402" y="290" as="targetPoint" />
            <Array as="points" />
          </mxGeometry>
        </mxCell>
      </root>
    </mxGraphModel>
  </diagram>
</mxfile>
